Coordinates
version=1
nRows=14
nColumns=46
inDegrees=yes

Units are S.I. units (second, meters, Newtons, ...)
Angles are in degrees.

endheader
time	pelvis_tilt	pelvis_list	pelvis_rotation	pelvis_tx	pelvis_ty	pelvis_tz	bb_angle	bb_tx	bb_ty	bb_tz	hip_flexion_r	hip_adduction_r	hip_rotation_r	knee_angle_r	knee_angle_r_beta	ankle_angle_r	subtalar_angle_r	mtp_angle_r	crank_angle_r	hip_flexion_l	hip_adduction_l	hip_rotation_l	knee_angle_l	knee_angle_l_beta	ankle_angle_l	subtalar_angle_l	mtp_angle_l	crank_angle_l	lumbar_extension	lumbar_bending	lumbar_rotation	arm_flex_r	arm_add_r	arm_rot_r	elbow_flex_r	pro_sup_r	wrist_flex_r	wrist_dev_r	arm_flex_l	arm_add_l	arm_rot_l	elbow_flex_l	pro_sup_l	wrist_flex_l	wrist_dev_l
      7.50500000	    -12.15294682	      0.00453060	      2.72240059	      0.05029130	      1.12188952	     -0.26366481	      0.00000000	      0.50000000	      0.00000000	      0.25000000	     73.09959661	     -2.97400629	      5.64325831	    106.99423221	      1.86740163	    -10.38408820	    -12.11114926	      0.00000000	      0.00000000	     48.77838285	     -3.98850766	     -0.91602802	     35.61497717	      0.62159861	    -11.93578237	      0.37733318	      0.00000000	      0.00000000	    -65.55116510	      0.63924205	      0.49447800	     89.50938316	    -28.79664603	     32.66807229	     67.90332664	     35.45757693	      0.00000000	      0.00000000	     89.52080012	    -21.30229607	     34.01524545	     70.97217262	     36.36049946	      0.00000000	      0.00000000
      7.51000000	    -12.08067412	     -0.39257748	      2.20441405	      0.05075309	      1.12226348	     -0.26465339	      0.00000000	      0.50000000	      0.00000000	      0.25000000	     74.56270802	     -2.62337118	      5.52153009	    108.17010837	      1.88792454	    -10.65580934	    -11.79200472	      0.00000000	      0.00000000	     47.25794809	     -4.70745538	     -1.65389478	     33.82491000	      0.59035605	    -13.10019358	      0.94160865	      0.00000000	      0.00000000	    -65.71746787	      0.75258678	      1.30410273	     89.51997790	    -28.91515596	     32.41878071	     68.46041454	     35.49835683	      0.00000000	      0.00000000	     89.49770078	    -21.24475548	     33.83790096	     70.98336358	     36.31169829	      0.00000000	      0.00000000
      7.51500000	    -11.93680199	     -0.60606201	      1.55538868	      0.05130563	      1.12271729	     -0.26566429	      0.00000000	      0.50000000	      0.00000000	      0.25000000	     75.93923785	     -2.20532609	      5.70228650	    109.25256614	      1.90681700	    -10.60669097	    -11.13679673	      0.00000000	      0.00000000	     45.59663830	     -5.34965281	     -2.64103867	     32.09627334	      0.56018565	    -13.98336120	      1.53607946	      0.00000000	      0.00000000	    -66.00553568	      0.64457934	      2.12267046	     89.52119781	    -29.25607653	     32.01828892	     69.29959006	     35.53494482	      0.00000000	      0.00000000	     89.47472600	    -20.98781221	     33.60203550	     70.95899852	     36.23497378	      0.00000000	      0.00000000
      7.52000000	    -11.97179692	     -0.99700531	      1.09797953	      0.05166690	      1.12278645	     -0.26673907	      0.00000000	      0.50000000	      0.00000000	      0.25000000	     77.47953354	     -1.94614257	      5.54654702	    110.20279948	      1.92340170	    -10.75722720	    -10.74931344	      0.00000000	      0.00000000	     44.29633805	     -6.01161761	     -3.37710986	     30.60779386	      0.53420678	    -14.88051708	      2.22514273	      0.00000000	      0.00000000	    -66.03654529	      0.81277651	      2.79234648	     89.53899380	    -29.26498032	     31.90202231	     69.69712097	     35.56267511	      0.00000000	      0.00000000	     89.43437571	    -20.98084253	     33.43786973	     70.92791748	     36.20531403	      0.00000000	      0.00000000
      7.52500000	    -11.92748497	     -1.25035856	      0.48058413	      0.05210696	      1.12289600	     -0.26780420	      0.00000000	      0.50000000	      0.00000000	      0.25000000	     78.91377703	     -1.55963092	      5.60459758	    111.04282738	      1.93806295	    -11.05813440	     -9.90669719	      0.00000000	      0.00000000	     42.88935168	     -6.67411500	     -4.41368943	     29.24473374	      0.51041689	    -15.56315194	      3.00052965	      0.00000000	      0.00000000	    -66.17986937	      0.77300649	      3.45340287	     89.54791965	    -29.34308835	     31.74167938	     70.23870054	     35.59562460	      0.00000000	      0.00000000	     89.40386432	    -20.91808459	     33.27987652	     70.87880631	     36.17473057	      0.00000000	      0.00000000
      7.53000000	    -11.80592369	     -1.38687787	     -0.17293156	      0.05253775	      1.12306266	     -0.26848818	      0.00000000	      0.50000000	      0.00000000	      0.25000000	     80.24826490	     -1.07385116	      5.84328471	    111.80990904	      1.95145105	    -10.89378804	     -9.31402995	      0.00000000	      0.00000000	     41.42388574	     -7.28550857	     -5.58856504	     28.05795642	      0.48970372	    -15.94543190	      4.05325590	      0.00000000	      0.00000000	    -66.44311251	      0.63719141	      4.14808836	     89.55716038	    -29.62268339	     31.55014172	     71.12844234	     35.62955953	      0.00000000	      0.00000000	     89.37812649	    -20.79857094	     33.05677362	     70.88983099	     36.15358571	      0.00000000	      0.00000000
      7.53500000	    -11.94620964	     -1.79301286	     -0.57081863	      0.05266166	      1.12286973	     -0.26965351	      0.00000000	      0.50000000	      0.00000000	      0.25000000	     81.72637547	     -0.81210853	      5.63967635	    112.32043875	      1.96036147	    -11.13089694	     -8.79379660	      0.00000000	      0.00000000	     40.44052511	     -7.84771494	     -6.06028518	     27.10206813	      0.47302032	    -16.36265078	      4.54480391	      0.00000000	      0.00000000	    -66.36143092	      0.88178849	      4.77333541	     89.57698323	    -29.51615577	     31.57688361	     71.39307002	     35.64296925	      0.00000000	      0.00000000	     89.33337768	    -20.86738626	     32.92689854	     70.87479026	     36.14010907	      0.00000000	      0.00000000
      7.54000000	    -12.03085585	     -2.07372422	     -1.06549198	      0.05270716	      1.12283023	     -0.27028166	      0.00000000	      0.50000000	      0.00000000	      0.25000000	     83.12348910	     -0.42754096	      5.58678859	    112.72570756	      1.96743475	    -11.30320056	     -8.32225861	      0.00000000	      0.00000000	     39.44090054	     -8.39290014	     -6.65278438	     26.29620327	      0.45895533	    -16.77595109	      5.11099016	      0.00000000	      0.00000000	    -66.36601619	      0.92871139	      5.31897923	     89.58992621	    -29.40734120	     31.58135775	     71.75852901	     35.66695833	      0.00000000	      0.00000000	     89.30883926	    -20.92337073	     32.77877590	     70.85186348	     36.12700340	      0.00000000	      0.00000000
      7.54500000	    -12.02440216	     -2.21988482	     -1.77512592	      0.05290187	      1.12290344	     -0.27043548	      0.00000000	      0.50000000	      0.00000000	      0.25000000	     84.33645355	      0.27341833	      5.73966934	    113.02338410	      1.97263018	    -11.25874718	     -7.78352941	      0.00000000	      0.00000000	     38.42403537	     -8.99603230	     -7.64243799	     25.82483133	      0.45072834	    -16.94156038	      5.75501618	      0.00000000	      0.00000000	    -66.53006204	      0.65993998	      5.92087184	     89.58863877	    -29.59835272	     31.58046388	     72.60860922	     35.67710058	      0.00000000	      0.00000000	     89.30026338	    -20.80944555	     32.54336032	     70.89315413	     36.13204540	      0.00000000	      0.00000000
      7.55000000	    -12.14969823	     -2.50535715	     -2.16005053	      0.05272092	      1.12281681	     -0.27111466	      0.00000000	      0.50000000	      0.00000000	      0.25000000	     85.57769836	      0.67443077	      5.64254400	    113.14899421	      1.97482249	    -11.31734118	     -7.57503123	      0.00000000	      0.00000000	     37.76344836	     -9.35728371	     -7.69562739	     25.55550948	      0.44602778	    -17.09095122	      5.60419670	      0.00000000	      0.00000000	    -66.51714385	      0.79942018	      6.41549529	     89.60704307	    -29.41083533	     31.65030528	     72.86903089	     35.68863862	      0.00000000	      0.00000000	     89.28471978	    -20.84435550	     32.44111063	     70.90467582	     36.13040273	      0.00000000	      0.00000000
      7.55500000	    -12.38891154	     -2.76785379	     -2.68297660	      0.05234085	      1.12267393	     -0.27121768	      0.00000000	      0.50000000	      0.00000000	      0.25000000	     86.84242256	      1.28895765	      5.52017625	    113.09043361	      1.97380042	    -11.30954838	     -7.42902231	      0.00000000	      0.00000000	     37.39722636	     -9.81071056	     -7.83451723	     25.62703625	      0.44727616	    -17.37960537	      5.09821562	      0.00000000	      0.00000000	    -66.44140514	      0.74922263	      6.92964832	     89.61730496	    -29.22567003	     31.67083646	     73.28893779	     35.69681120	      0.00000000	      0.00000000	     89.27612782	    -20.93132836	     32.25819603	     70.94861859	     36.13301264	      0.00000000	      0.00000000
      7.56000000	    -12.66185729	     -2.97954978	     -3.15442769	      0.05188792	      1.12258843	     -0.27146106	      0.00000000	      0.50000000	      0.00000000	      0.25000000	     87.99355915	      1.88010034	      5.44373806	    112.90263730	      1.97052276	    -11.09290013	     -7.40523932	      0.00000000	      0.00000000	     37.23366550	    -10.14534914	     -7.78046132	     25.99276985	      0.45365942	    -17.58238292	      4.23525602	      0.00000000	      0.00000000	    -66.34236648	      0.72868248	      7.36131295	     89.62808272	    -29.01997877	     31.65209654	     73.70017373	     35.69027885	      0.00000000	      0.00000000	     89.27321206	    -21.00837587	     32.06423402	     71.06443680	     36.14878080	      0.00000000	      0.00000000
      7.56500000	    -12.87343943	     -3.18658833	     -3.56250952	      0.05127081	      1.12272978	     -0.27160256	      0.00000000	      0.50000000	      0.00000000	      0.25000000	     88.89552016	      2.44388594	      5.31982863	    112.57318160	      1.96477267	    -10.62513327	     -7.55018625	      0.00000000	      0.00000000	     37.18492882	    -10.42974764	     -7.58386477	     26.64947789	      0.46512113	    -17.77367649	      3.13070212	      0.00000000	      0.00000000	    -66.30988950	      0.76698691	      7.72108363	     89.64363752	    -28.70927442	     31.61447563	     74.04817203	     35.67654558	      0.00000000	      0.00000000	     89.28549572	    -21.14769448	     31.88166917	     71.16683466	     36.16115063	      0.00000000	      0.00000000
      7.57000000	    -13.30785733	     -3.47517644	     -3.88729881	      0.05056819	      1.12267924	     -0.27180176	      0.00000000	      0.50000000	      0.00000000	      0.25000000	     89.84447166	      2.94484843	      5.05981442	    112.06185227	      1.95584829	    -10.10103027	     -7.75336494	      0.00000000	      0.00000000	     37.61503846	    -10.71710276	     -7.07358100	     27.67357108	      0.48299493	    -18.06859904	      1.56694877	      0.00000000	      0.00000000	    -66.10451281	      0.93406784	      8.10264895	     89.65692478	    -28.36166873	     31.41529546	     74.45818524	     35.60610699	      0.00000000	      0.00000000	     89.28659365	    -21.41562593	     31.62817925	     71.45267454	     36.20579113	      0.00000000	      0.00000000
